<svg width="40" height="40" viewBox="0 0 40 40" fill="none" xmlns="http://www.w3.org/2000/svg">
<path d="M20.1024 21.0565C23.7275 21.0565 26.6663 18.1571 26.6663 14.5805C26.6663 11.0039 23.7275 8.10449 20.1024 8.10449C16.4772 8.10449 13.5385 11.0039 13.5385 14.5805C13.5385 18.1571 16.4772 21.0565 20.1024 21.0565Z" fill="#FF0060"/>
<path d="M7 34.0402C7 34.0402 7.02086 25.0912 15.8591 22C15.8591 22 20.1418 24.3808 23.9716 22.0133C23.9716 22.0133 31.5352 23.7999 33 34.0402C33 34.0402 27.918 39.95 19.9948 39.9495C19.9948 39.9495 13.9328 40.9503 7 34.0402Z" fill="#FF0060"/>
<circle cx="20" cy="20" r="19" stroke="#FF0060" stroke-width="2"/>
</svg>
