<svg width="31" height="40" viewBox="0 0 31 40" fill="none" xmlns="http://www.w3.org/2000/svg">
<path d="M1.20128 6.18188C10.6759 6.18188 20.0165 6.18188 29.4693 6.18188C29.4693 7.1952 29.4731 8.18847 29.4629 9.18174C29.462 9.27413 29.394 9.39208 29.3202 9.45367C28.3714 10.2456 28.379 11.3092 28.3819 12.4216C28.4034 20.3892 28.3476 28.3572 28.4231 36.3243C28.444 38.5328 26.9912 39.9839 24.8643 39.9886C18.5113 40.0034 12.1586 40.0054 5.80566 39.9851C3.59774 39.9781 2.23726 38.4477 2.25585 36.31C2.32761 28.0519 2.29594 19.7925 2.2605 11.534C2.25818 10.9757 2.02489 10.331 1.68848 9.88508C1.32301 9.40079 1.16584 8.95572 1.19315 8.37498C1.22685 7.66816 1.20128 6.95843 1.20128 6.18188ZM10.5123 32.8785C10.5123 26.2068 10.5123 19.5825 10.5123 12.9213C9.68374 12.9213 8.90516 12.9213 8.0862 12.9213C8.0862 19.5918 8.0862 26.2167 8.0862 32.8785C8.91417 32.8785 9.69304 32.8785 10.5123 32.8785ZM20.9473 12.9186C20.9473 19.6191 20.9473 26.2216 20.9473 32.8483C21.7863 32.8483 22.5806 32.8483 23.3525 32.8483C23.3525 26.1548 23.3525 19.5366 23.3525 12.9186C22.5187 12.9186 21.7602 12.9186 20.9473 12.9186ZM16.58 32.8703C16.58 26.2144 16.58 19.586 16.58 12.9346C15.7541 12.9346 14.9793 12.9346 14.1609 12.9346C14.1609 19.6008 14.1609 26.2083 14.1609 32.8703C14.9816 32.8703 15.759 32.8703 16.58 32.8703Z" fill="#FF0060"/>
<path d="M0 5.42451C0 4.79206 0 4.22265 0 3.54779C0.324215 3.54779 0.607758 3.54779 0.891591 3.54779C2.98359 3.54779 5.07588 3.56028 7.16759 3.53035C7.41889 3.52687 7.81834 3.34994 7.89301 3.15501C8.65416 1.17399 10.1259 0.134523 12.1825 0.0563743C14.4011 -0.0278751 16.6317 -0.0229363 18.8475 0.106924C20.7192 0.216739 22.0568 1.2594 22.7058 3.05188C22.8746 3.51786 23.1535 3.54837 23.5454 3.54691C25.5581 3.53849 27.5705 3.54314 29.5832 3.54343C29.9242 3.54343 30.2653 3.54343 30.6656 3.54343C30.6656 4.19621 30.6656 4.78364 30.6656 5.42422C20.4404 5.42451 10.238 5.42451 0 5.42451ZM10.4969 3.48678C13.7591 3.48678 16.9062 3.48678 20.1594 3.48678C19.7507 2.73202 19.1659 2.39618 18.4585 2.38398C16.3967 2.34883 14.3334 2.35348 12.2714 2.37875C11.5465 2.38776 10.9571 2.72737 10.4969 3.48678Z" fill="#FF0060"/>
</svg>
