<svg width="40" height="40" viewBox="0 0 40 40" fill="none" xmlns="http://www.w3.org/2000/svg">
<path d="M20.0165 36.3501C23.0181 36.3501 26.0198 36.3516 29.0214 36.3495C30.0802 36.3487 31.1408 36.3784 32.197 36.3262C34.3332 36.2208 36.1904 34.3732 36.3206 32.241C36.3699 31.435 36.3544 30.6247 36.355 29.8161C36.3582 26.4559 36.3605 23.096 36.3509 19.7357C36.3498 19.3399 36.4631 19.0343 36.752 18.7599C37.3261 18.2147 37.8816 17.6496 38.4365 17.0845C38.987 16.5238 39.8685 16.9584 39.9567 17.455C39.9713 17.5366 39.9844 17.6196 39.9844 17.702C39.985 22.4712 40.017 27.2406 39.9719 32.0095C39.943 35.0472 38.4455 37.2924 35.9228 38.8863C34.7014 39.6579 33.3368 39.9839 31.9007 39.9853C25.6059 39.9914 19.311 39.9879 13.0161 39.9877C11.3902 39.9877 9.76423 39.9786 8.13859 39.9885C4.04725 40.0133 1.22328 37.0105 0.391671 34.3645C0.137382 33.555 0.00514039 32.7269 0.00514039 31.8804C0.00310142 23.9013 -0.00942363 15.9223 0.0141702 7.94321C0.0208696 5.72714 0.913647 3.85624 2.5023 2.31478C4.10696 0.757589 6.02797 0.00724835 8.26151 0.0104524C13.3056 0.0174432 18.35 0.0116176 23.3942 0.0113263C23.4941 0.0113263 23.5951 0.00579196 23.6942 0.0159868C23.977 0.0454062 24.1285 0.212019 24.1285 0.49631C24.1285 0.892744 23.9563 1.23238 23.705 1.51376C23.2779 1.99204 22.8084 2.43217 22.3767 2.90608C22.0347 3.28154 21.6112 3.49156 21.1286 3.58797C20.8856 3.63661 20.6322 3.6506 20.3835 3.65089C16.3315 3.65467 12.2792 3.64652 8.22714 3.65642C6.22516 3.66137 4.84187 4.65289 3.98812 6.42388C3.72014 6.97965 3.64121 7.58522 3.6415 8.20012C3.64295 11.168 3.64499 14.1361 3.64499 17.104C3.64499 20.1054 3.64208 23.1067 3.64179 26.1081C3.6415 28.0422 3.63334 29.9766 3.64761 31.9107C3.66567 34.3348 5.6627 36.3344 8.08616 36.344C11.4292 36.3571 14.7725 36.3475 18.1159 36.3478C18.7494 36.3478 19.3832 36.3478 20.0168 36.3478C20.0165 36.349 20.0165 36.3495 20.0165 36.3501Z" fill="#00DFA2"/>
<path d="M9.53092 30.479C9.5251 30.3686 9.51723 30.2877 9.51723 30.2064C9.51607 27.8386 9.51811 25.4707 9.51053 23.1029C9.50995 22.8938 9.57257 22.7487 9.72025 22.6013C14.0976 18.2312 18.4712 13.8571 22.8448 9.48319C24.2712 8.05678 25.6973 6.62951 27.1214 5.20077C27.2094 5.11251 27.2802 5.00736 27.3416 4.93134C29.9241 7.51908 32.4702 10.0698 35.0547 12.6593C34.6589 13.0429 34.2179 13.4598 33.7888 13.8885C28.3401 19.3335 22.8923 24.7795 17.4494 30.2303C17.2714 30.4085 17.0978 30.4875 16.8421 30.4866C14.4993 30.4761 12.1565 30.4796 9.81347 30.479C9.72462 30.479 9.63549 30.479 9.53092 30.479ZM15.1483 20.8274C15.1378 20.8347 15.1081 20.8499 15.0857 20.8723C14.1189 21.8376 13.151 22.8017 12.1903 23.7732C12.1245 23.8396 12.0875 23.9607 12.084 24.058C12.0709 24.4157 12.063 24.7752 12.0846 25.1323C12.0927 25.2651 12.1562 25.4227 12.2474 25.5179C12.7373 26.0291 13.2433 26.5249 13.7452 27.0247C14.0402 27.3186 14.2908 27.7247 14.647 27.8706C15.012 28.0203 15.4821 27.9271 15.905 27.9126C16.037 27.9079 16.1981 27.8459 16.291 27.7544C17.1878 26.8721 18.073 25.9782 18.9609 25.0871C19.041 25.0067 19.1182 24.9231 19.1785 24.8599C17.8246 23.5055 16.4908 22.1708 15.1483 20.8274ZM18.1284 19.1864C18.2481 19.0984 18.436 18.9932 18.5831 18.8467C20.7086 16.7309 22.8285 14.6092 24.9496 12.4889C25.8925 11.5466 26.8368 10.6061 27.7768 9.66087C28.1208 9.31483 28.1313 9.02675 27.8283 8.73256C27.5411 8.45351 27.2871 8.47477 26.942 8.80712C26.8939 8.85344 26.8464 8.90004 26.7992 8.94723C24.0828 11.662 21.3663 14.3764 18.6501 17.0917C18.2906 17.4509 17.9306 17.8098 17.5799 18.1774C17.4276 18.337 17.3539 18.5336 17.4646 18.7497C17.5849 18.9836 17.7675 19.143 18.1284 19.1864Z" fill="#00DFA2"/>
<path d="M36.7564 10.7779C34.2747 8.29244 31.7335 5.74751 29.1746 3.18482C29.1714 3.19035 29.1845 3.14957 29.2113 3.12278C30.0371 2.29903 30.8498 1.4616 31.6948 0.658245C32.5343 -0.140157 33.8902 -0.217638 34.831 0.455222C35.0728 0.628243 35.2848 0.846413 35.4966 1.05759C36.7538 2.3101 38.0127 3.56057 39.2591 4.82386C40.0575 5.63304 40.2229 6.84011 39.6954 7.82318C39.629 7.94727 39.5603 8.07922 39.4612 8.17534C38.5591 9.05152 37.6503 9.91983 36.7564 10.7779Z" fill="#00DFA2"/>
</svg>
