<svg width="50" height="50" viewBox="0 0 50 50" fill="none" xmlns="http://www.w3.org/2000/svg">
<circle cx="25" cy="25" r="24" fill="#FBFDCE" stroke="#FF0060" stroke-width="2"/>
<path d="M22.2012 31.1182C21.4362 31.1182 20.891 31.0205 20.5654 30.8252C20.2399 30.6299 20.0771 30.2962 20.0771 29.8242C20.0771 28.6849 20.3376 27.6025 20.8584 26.5771C21.3792 25.5518 22.0954 24.4938 23.0068 23.4033C23.9183 22.3779 24.3415 21.9059 24.2764 21.9873C25.1553 21.027 25.79 20.2702 26.1807 19.7168C26.5876 19.1634 26.791 18.6426 26.791 18.1543C26.791 17.3893 26.5225 16.7952 25.9854 16.3721C25.4645 15.9489 24.6589 15.7373 23.5684 15.7373C22.8359 15.7373 22.1686 15.8268 21.5664 16.0059C20.9805 16.1849 20.3457 16.429 19.6621 16.7383C19.1738 16.9661 18.8564 17.0801 18.71 17.0801C18.3356 17.0801 17.9368 16.8604 17.5137 16.4209C17.0905 15.9652 16.7324 15.4525 16.4395 14.8828C16.1465 14.2969 16 13.8493 16 13.54C16 12.7262 16.415 12.0589 17.2451 11.5381C18.0915 11.001 19.1413 10.6104 20.3945 10.3662C21.6478 10.1221 22.8929 10 24.1299 10C26.0667 10 27.7432 10.3174 29.1592 10.9521C30.5752 11.5706 31.6576 12.4658 32.4062 13.6377C33.1712 14.7933 33.5537 16.1605 33.5537 17.7393C33.5537 18.9274 33.334 19.9854 32.8945 20.9131C32.4714 21.8408 31.9505 22.6302 31.332 23.2812C30.7135 23.916 29.9079 24.6647 28.915 25.5273C27.8571 26.4225 27.0596 27.1875 26.5225 27.8223C25.9854 28.4408 25.6436 29.1406 25.4971 29.9219C25.3506 30.3776 25.1064 30.695 24.7646 30.874C24.4391 31.0368 23.9183 31.1182 23.2021 31.1182H22.2012ZM21.957 40.8105C20.2318 40.8105 19.3691 40.3548 19.3691 39.4434V35.4395C19.3691 34.5117 20.2318 34.0479 21.957 34.0479H23.373C25.0983 34.0479 25.9609 34.5117 25.9609 35.4395V39.4434C25.9609 40.3548 25.0983 40.8105 23.373 40.8105H21.957Z" fill="#FF0060"/>
</svg>
