<svg width="165" height="78" viewBox="0 0 165 78" fill="none" xmlns="http://www.w3.org/2000/svg">
<path d="M119.043 23.2067C115.013 23.5887 112.236 25.6141 110.855 29.4319C110.517 30.3652 110.413 31.3541 110.411 32.3447C110.405 37.5055 110.418 42.6659 110.396 47.8267C110.393 48.46 110.528 48.872 111.141 49.1829C123.873 55.6299 139.719 55.3426 151.344 46.0904C151.972 45.5909 152.24 45.077 152.232 44.2711C152.194 40.4388 152.216 36.6064 152.215 32.7736C152.213 27.3337 148.984 23.7717 143.56 23.2236C143.248 23.2204 142.935 23.2167 142.623 23.2136C135.303 23.2117 127.982 23.2099 120.661 23.2081C120.576 23.2081 120.492 23.2081 120.407 23.2081C120.339 23.2468 120.271 23.2468 120.204 23.2081C119.816 23.2076 119.429 23.2072 119.043 23.2067ZM120.62 39.6789C120.541 39.0393 120.652 38.3924 120.887 37.7983C121.338 36.6601 122.077 35.7696 123.367 35.5247C124.608 35.2889 125.506 35.8771 126.212 36.8103C127.425 38.4129 127.322 41.1039 126.013 42.6377C124.683 44.196 122.641 44.1318 121.447 42.4706C120.857 41.6488 120.551 40.721 120.62 39.6789ZM135.157 40.752C135.516 38.2872 137.013 36.722 138.895 36.738C140.698 36.753 142.254 38.4411 142.462 40.6072C139.347 38.0354 137.869 38.0418 135.157 40.752Z" fill="#00DFA2"/>
<path d="M144.033 74.1412C148.723 73.7083 152.18 69.9524 152.216 65.1822C152.248 60.8554 152.249 56.5277 152.202 52.2009C152.192 51.2244 152.475 50.46 153.058 49.7024C154.615 47.6797 155.833 45.4407 157.071 43.2182C157.218 42.9532 157.377 42.686 157.207 42.238C155.646 44.4401 153.947 46.435 151.959 48.1645C146.656 52.7782 140.479 55.4173 133.483 56.107C123.984 57.043 115.5 54.2445 107.69 49.0377C107.341 48.8051 107.028 48.3494 106.428 48.7227C107.387 49.9569 108.4 51.1228 109.555 52.1463C110.18 52.7003 110.42 53.289 110.41 54.118C110.372 57.7614 110.384 61.4058 110.397 65.0497C110.414 69.7926 113.681 73.5152 118.347 74.1321C119.109 73.9496 119.338 74.2596 119.341 75.0158C119.346 76.4585 120.247 77.4491 121.458 77.4787C122.751 77.5106 123.806 76.5081 123.801 75.1023C123.799 74.2778 124.105 74.0993 124.871 74.1052C129.093 74.1371 133.315 74.1558 137.537 74.0966C138.575 74.082 139.039 74.352 138.93 75.4123C138.842 76.2805 139.299 76.8468 140.043 77.2129C141.571 77.9649 143.219 76.9015 143.291 75.1282C143.312 74.6397 143.09 73.9523 144.033 74.1412Z" fill="#0079FF"/>
<path d="M144.183 8.47363C144.133 7.52806 144.155 6.57201 144.021 5.63827C143.642 2.99868 141.319 0.95729 138.656 0.936803C134.08 0.901748 129.503 0.915406 124.926 0.902659C123.972 0.899927 123.03 0.9755 122.108 1.23591C121.035 1.8191 120.119 2.59122 119.332 3.51813L119.335 3.50583C119.332 3.70979 119.229 3.85593 119.066 3.96701C118.996 4.11224 118.927 4.25747 118.858 4.4027C118.768 4.70226 118.677 5.00182 118.587 5.30183C118.558 5.45116 118.528 5.60048 118.499 5.74935C118.596 6.7309 118.36 7.72564 118.619 8.7008L118.603 8.69352C118.945 8.69124 119.295 8.64344 119.629 8.69534C120.724 8.86652 121.194 8.45633 121.017 7.3414C120.976 7.08418 121.018 6.81193 121.036 6.54743C121.171 4.66128 122.39 3.46167 124.29 3.45302C129.014 3.43163 133.737 3.45166 138.461 3.45029C139.44 3.44984 140.23 3.79993 140.782 4.62532L140.797 4.6367C140.866 4.70909 140.934 4.78102 141.002 4.8534L141.021 4.87252C141.058 4.93672 141.094 5.00091 141.131 5.0651C141.208 5.24037 141.284 5.41565 141.36 5.59092C141.753 6.28884 141.662 7.05732 141.621 7.79575C141.581 8.50732 141.877 8.75953 142.531 8.6876C143.083 8.6266 143.672 8.84194 144.183 8.47363Z" fill="#00DFA2"/>
<path d="M159.82 38.1325C159.215 39.5319 159.259 39.9389 160.164 41.3266C161.156 39.4386 161.17 39.3607 163.378 39.75C164.457 39.9403 164.665 39.6835 164.631 38.6628C164.538 35.8229 164.552 32.9794 164.51 30.1372C164.506 29.8895 164.621 29.6041 164.563 29.5494C161.301 32.5992 158.051 35.6385 154.703 38.7684C157.157 39.4167 158.554 39.0562 159.574 37.6449C159.868 36.9706 160.197 36.3205 160.934 35.644C160.742 36.7334 160.283 37.4336 159.82 38.1325ZM161.897 34.3848C161.464 33.7365 161.778 33.4888 162.27 33.1478C162.365 33.6982 162.27 34.0292 161.897 34.3848Z" fill="#0079FF"/>
<path d="M142.89 22.5344C143.731 22.3978 143.467 21.729 143.53 21.2182C143.39 17.4313 143.426 13.6436 143.512 9.85582C143.511 9.77752 143.51 9.69876 143.509 9.62045C143.486 9.16109 143.254 8.96715 142.787 9.02224C142.462 9.06048 142.351 9.22073 142.366 9.53577C142.378 9.78981 142.336 10.0466 142.317 10.302C142.321 13.9463 142.324 17.5907 142.328 21.2355C142.451 21.6962 142.194 22.319 142.89 22.5344Z" fill="#00DFA2"/>
<path d="M120.198 22.3968C120.211 18.2066 120.225 14.016 120.235 9.82574C120.236 9.45652 120.302 9.03086 119.71 9.04133C119.201 9.05043 119.232 9.41282 119.216 9.75517C119.207 9.94229 119.18 10.1289 119.162 10.3161C119.21 14.0478 119.268 17.7796 119.131 21.5104C119.253 21.7149 119.243 21.9165 119.119 22.1155C119.17 22.2129 119.221 22.3103 119.272 22.4078C119.581 22.4041 119.889 22.4005 120.198 22.3968Z" fill="#00DFA2"/>
<path d="M107.561 46.7796C106.573 45.5846 105.487 45.3141 104.636 46.003C103.673 46.781 104.184 47.5868 104.738 48.6494C104.887 47.8322 104.908 47.1712 105.547 46.8679C106.161 46.5775 106.804 46.8475 107.561 46.7796Z" fill="#0079FF"/>
<path d="M10.8201 1.80707C12.0026 1.80707 12.5939 3.8866 12.5939 8.04567L12.8979 16.0229H12.9993L21.1077 12.8525C21.9185 5.89795 22.6618 2.4207 23.3375 2.4207L23.9963 2.31843C24.5706 2.31843 25.0943 2.77865 25.5673 3.6991C24.3848 9.56271 23.7936 14.6422 23.7936 18.9377V21.1365C23.7936 24.2729 24.5368 27.2558 26.0234 30.0853C25.6855 31.0399 25.145 31.5171 24.4017 31.5171C22.78 31.5171 21.5807 28.2103 20.8036 21.5967V16.3808H20.4995C15.4318 18.1877 12.8979 19.3467 12.8979 19.8581C12.8979 27.9717 12.1546 32.0285 10.6681 32.0285H10.4654C9.75591 32.0285 9.29981 31.4319 9.0971 30.2387C9.60388 26.5228 9.85726 23.6422 9.85726 21.5967L7.62745 22.7729L7.17136 22.8751C6.32673 22.5683 5.90442 22.0399 5.90442 21.2899C5.90442 20.5399 7.22203 19.3638 9.85726 17.7615V17.6593C9.75591 11.7956 9.53631 6.93772 9.19846 3.08547C9.19846 2.33548 9.73902 1.90934 10.8201 1.80707Z" fill="#FF0060"/>
<path d="M37.6222 10.5513C39.1087 10.5513 39.852 11.1479 39.852 12.3411L39.3959 13.3127L39.0919 22.6706C39.0919 26.8978 39.9365 29.5228 41.6257 30.5455L41.7271 31.3126C41.6257 32.3012 41.1696 32.7955 40.3588 32.7955H40.0547C37.5209 31.0569 36.2539 28.3978 36.2539 24.8183H35.8992C34.5478 28.6365 32.9092 30.5455 30.9835 30.5455C29.1928 30.0342 28.2975 28.6876 28.2975 26.5058C28.2975 21.699 30.2064 16.9093 34.0241 12.1366C35.3079 11.0797 36.5073 10.5513 37.6222 10.5513ZM31.4902 24.4603L31.2875 25.8922V26.8637H31.7943C34.3282 20.4888 35.5951 16.6024 35.5951 15.2047H35.3924C33.4329 17.4206 32.1321 20.5058 31.4902 24.4603Z" fill="#FF0060"/>
<path d="M49.1763 15.1024C52.7575 15.1024 54.8691 17.3695 55.511 21.9035C55.511 25.9262 53.6528 28.8069 49.9364 30.5455C49.531 30.7501 48.9736 30.8524 48.2641 30.8524H47.9093L46.7944 30.7501V30.8524L46.9971 44.5057C46.7607 45.5625 46.2201 46.0909 45.3755 46.0909C44.4295 45.7841 43.9565 45.2898 43.9565 44.608L43.5004 16.7899C43.5004 15.9036 44.0241 15.4434 45.0714 15.4093L46.1356 15.8695C47.0816 15.3581 48.0952 15.1024 49.1763 15.1024ZM46.6424 20.5229L46.4904 22.1081L46.6424 27.5285L48.0614 27.8865C50.325 27.8865 51.7946 26.216 52.4703 22.8751V22.1081C52.2338 19.4149 51.2878 18.0683 49.6324 18.0683H48.8722C47.3857 18.0683 46.6424 18.8865 46.6424 20.5229Z" fill="#FF0060"/>
<path d="M64.1222 15.1024C67.7034 15.1024 69.815 17.3695 70.4569 21.9035C70.4569 25.9262 68.5987 28.8069 64.8823 30.5455C64.4769 30.7501 63.9195 30.8524 63.21 30.8524H62.8552L61.7403 30.7501V30.8524L61.9431 44.5057C61.7066 45.5625 61.166 46.0909 60.3214 46.0909C59.3754 45.7841 58.9024 45.2898 58.9024 44.608L58.4463 16.7899C58.4463 15.9036 58.97 15.4434 60.0173 15.4093L61.0815 15.8695C62.0275 15.3581 63.0411 15.1024 64.1222 15.1024ZM61.5883 20.5229L61.4363 22.1081L61.5883 27.5285L63.0073 27.8865C65.2709 27.8865 66.7405 26.216 67.4162 22.8751V22.1081C67.1797 19.4149 66.2337 18.0683 64.5783 18.0683H63.8181C62.3316 18.0683 61.5883 18.8865 61.5883 20.5229Z" fill="#FF0060"/>
<path d="M74.4564 14.949C75.6389 14.949 76.4498 17.574 76.889 22.824C77.4633 25.2444 77.8856 26.4547 78.1559 26.4547H78.46C79.3046 24.3069 79.7269 22.1763 79.7269 20.0626L79.4228 16.5343C79.7945 15.6138 80.3181 15.1536 80.9938 15.1536C82.2439 15.1536 82.8689 17.3865 82.8689 21.8524C83.6122 26.4887 83.9838 30.8012 83.9838 34.7898V37.1932C83.9838 44.5227 81.9229 49.4659 77.8012 52.0227L76.6862 52.2272C74.7605 52.2272 72.9699 50.4204 71.3144 46.8068L70.8583 43.7386V43.5852C70.8583 41.3353 71.4834 40.2103 72.7334 40.2103L74.0003 41.0284L73.8483 44.25C73.8483 45.8182 74.6423 47.4034 76.2301 49.0057H76.889C78.7471 49.0057 80.1154 45.4261 80.9938 38.2671L81.0952 35.3012C81.0614 31.858 80.9263 29.6592 80.6898 28.7046C79.3384 29.8978 78.2741 30.4944 77.4971 30.4944C75.7741 30.4944 74.2368 25.841 72.8854 16.5343L72.7334 16.432C72.7334 15.6479 73.3077 15.1536 74.4564 14.949Z" fill="#FF0060"/>
<path d="M11.5803 38.9319L26.7836 37.9603C27.2228 37.9603 27.6451 38.3864 28.0505 39.2387C28.0505 40.5341 26.564 41.1818 23.5909 41.1818L14.7223 41.6932L14.5196 41.7955C15.3642 47.3523 15.7865 57.9033 15.7865 73.4487C15.6176 74.9487 15.077 75.6987 14.1649 75.6987C13.2864 75.6987 12.7797 75.0169 12.6445 73.6532V61.7897C12.6445 53.8806 12.2898 47.2841 11.5803 42C5.53278 42.5796 2.50903 43.2614 2.50903 44.0455L2.05293 44.25C1.00559 43.9432 0.481926 43.3977 0.481926 42.6137C0.481926 40.7387 4.18138 39.5114 11.5803 38.9319Z" fill="#FF0060"/>
<path d="M29.9157 51.0511C32.0441 51.0511 33.3111 52.5511 33.7165 55.5511V56.0113C33.7165 59.3181 32.0272 62.3522 28.6487 65.1135C30.6083 67.0567 34.0374 68.0283 38.9363 68.0283C39.6795 68.2669 40.0512 68.7953 40.0512 69.6135C40.0512 70.5339 39.4599 70.9942 38.2775 70.9942C34.9665 70.9942 31.4867 70.1419 27.8379 68.4374V69.9203C27.8379 73.4317 27.0946 75.1873 25.6081 75.1873C24.5607 75.1873 24.0371 73.1589 24.0371 69.1021V65.1135L23.885 63.6817L24.2398 62.0454L23.885 57.1363V56.9318C23.885 56.0113 24.358 55.3806 25.304 55.0397C26.6216 52.3806 28.1588 51.0511 29.9157 51.0511ZM27.3818 62.2499C28.3615 62.2499 29.4596 60.4772 30.6758 56.9318V54.7329L30.0677 54.0681H29.6116C28.1251 55.0909 27.3818 57.8181 27.3818 62.2499Z" fill="#FF0060"/>
<path d="M51.2121 51.4602C52.6986 51.4602 53.4419 52.0568 53.4419 53.25L52.9858 54.2215L52.6817 63.5794C52.6817 67.8067 53.5264 70.4317 55.2156 71.4544L55.317 72.2214C55.2156 73.2101 54.7595 73.7044 53.9487 73.7044H53.6446C51.1107 71.9658 49.8438 69.3067 49.8438 65.7271H49.4891C48.1377 69.5453 46.4991 71.4544 44.5733 71.4544C42.7827 70.943 41.8874 69.5964 41.8874 67.4146C41.8874 62.6078 43.7963 57.8181 47.614 53.0454C48.8978 51.9886 50.0972 51.4602 51.2121 51.4602ZM45.0801 65.3692L44.8774 66.801V67.7726H45.3842C47.9181 61.3976 49.185 57.5113 49.185 56.1136H48.9823C47.0228 58.3295 45.722 61.4147 45.0801 65.3692Z" fill="#FF0060"/>
<path d="M57.293 53.9659C58.0701 53.9659 58.9147 55.8408 59.8269 59.5908C61.1107 62.5908 61.8371 64.176 62.006 64.3465C62.1749 64.3465 62.7999 62.6419 63.8811 59.2329C64.9622 55.8238 65.9926 54.1193 66.9724 54.1193C67.8846 54.4602 68.3407 55.0056 68.3407 55.7556C65.5365 63.051 64.1345 67.8749 64.1345 70.2271L63.1716 71.1987H62.2087C60.9925 70.3124 58.9316 65.6249 56.0261 57.1363L55.57 55.2443C55.8065 54.392 56.3808 53.9659 57.293 53.9659Z" fill="#FF0060"/>
<path d="M75.0499 52.8409C76.4013 52.875 78.6818 55.2613 81.8914 59.9999L81.9927 60.8692C81.9927 61.8238 79.6785 62.5567 75.0499 63.0681L74.8979 63.2215V63.426C75.6074 66.4942 76.3506 68.0283 77.1277 68.0283H77.7358C78.8169 68.0283 80.4555 66.8521 82.6515 64.4999H82.9556C83.6313 64.4999 84.155 64.9942 84.5266 65.9828C84.5266 66.801 83.1076 68.2158 80.2697 70.2271C79.5264 70.6703 78.6311 70.9942 77.5838 71.1987C74.8472 71.1987 72.9384 68.6078 71.8572 63.426C70.3031 63.1874 69.5261 62.5397 69.5261 61.4829C69.5261 60.7329 70.1004 60.2386 71.2491 59.9999V60.2045L71.7559 59.9999V58.7215C71.7559 54.8011 72.8539 52.8409 75.0499 52.8409ZM75.354 56.5227H74.8979L74.6952 58.4147V59.9999H74.8979C76.7898 59.9317 77.7358 59.7272 77.7358 59.3863C76.8574 58.0567 76.0635 57.1022 75.354 56.5227Z" fill="#FF0060"/>
<path d="M89.3627 43.0227C90.3087 43.3636 90.7817 43.8921 90.7817 44.608L91.2885 64.0908V70.3805C91.2885 71.5396 90.7986 72.1192 89.8188 72.1192H89.16C88.5519 71.7101 88.2478 71.2328 88.2478 70.6873V64.7556L87.7917 44.5057C87.7917 43.6534 88.3154 43.1591 89.3627 43.0227Z" fill="#FF0060"/>
</svg>
